<svg xmlns="http://www.w3.org/2000/svg" width="1100" height="1350" viewBox="0 0 1100 1350"><rect width="1100" height="1350" fill="#101820"/><g font-family="monospace" fill="#eef3f5"><text x="30" y="30">winner | BTC-USDT short | saved net 74.33 bps / MFE 4.19R</text><line x1="60" x2="60" y1="105.17" y2="134.04" stroke="#fa827d"/><rect x="51" y="113.03" width="18" height="2.24" fill="#fa827d"/><text x="52" y="258" font-size="10">-8</text><line x1="107" x2="107" y1="111.02" y2="129.57" stroke="#66d9a4"/><rect x="98" y="113.39" width="18" height="1.88" fill="#66d9a4"/><text x="99" y="258" font-size="10">-7</text><line x1="154" x2="154" y1="72.83" y2="115.06" stroke="#66d9a4"/><rect x="145" y="104.37" width="18" height="9.04" fill="#66d9a4"/><text x="146" y="258" font-size="10">-6</text><line x1="201" x2="201" y1="64.16" y2="105.07" stroke="#66d9a4"/><rect x="192" y="64.16" width="18" height="40.21" fill="#66d9a4"/><text x="193" y="258" font-size="10">-5</text><line x1="248" x2="248" y1="60.00" y2="78.05" stroke="#fa827d"/><rect x="239" y="64.16" width="18" height="12.77" fill="#fa827d"/><text x="240" y="258" font-size="10">-4</text><line x1="295" x2="295" y1="67.15" y2="80.57" stroke="#66d9a4"/><rect x="286" y="74.88" width="18" height="2.04" fill="#66d9a4"/><text x="287" y="258" font-size="10">-3</text><line x1="342" x2="342" y1="67.74" y2="89.60" stroke="#fa827d"/><rect x="333" y="74.45" width="18" height="15.09" fill="#fa827d"/><text x="334" y="258" font-size="10">-2</text><line x1="389" x2="389" y1="85.02" y2="105.59" stroke="#fa827d"/><rect x="380" y="89.54" width="18" height="5.84" fill="#fa827d"/><text x="381" y="258" font-size="10">-1</text><rect x="418" y="50" width="36" height="205" fill="#304353"/><line x1="436" x2="436" y1="95.38" y2="113.84" stroke="#fa827d"/><rect x="427" y="95.38" width="18" height="12.90" fill="#fa827d"/><text x="428" y="258" font-size="10">0</text><line x1="483" x2="483" y1="103.30" y2="118.75" stroke="#66d9a4"/><rect x="474" y="105.65" width="18" height="2.62" fill="#66d9a4"/><text x="475" y="258" font-size="10">1</text><line x1="530" x2="530" y1="98.08" y2="111.30" stroke="#fa827d"/><rect x="521" y="105.61" width="18" height="5.32" fill="#fa827d"/><text x="522" y="258" font-size="10">2</text><line x1="577" x2="577" y1="110.90" y2="127.20" stroke="#fa827d"/><rect x="568" y="110.93" width="18" height="14.97" fill="#fa827d"/><text x="569" y="258" font-size="10">3</text><line x1="624" x2="624" y1="122.80" y2="145.76" stroke="#fa827d"/><rect x="615" y="125.88" width="18" height="19.48" fill="#fa827d"/><text x="616" y="258" font-size="10">4</text><line x1="671" x2="671" y1="145.09" y2="174.22" stroke="#fa827d"/><rect x="662" y="145.39" width="18" height="21.80" fill="#fa827d"/><text x="663" y="258" font-size="10">5</text><line x1="718" x2="718" y1="156.38" y2="180.17" stroke="#fa827d"/><rect x="709" y="167.17" width="18" height="7.43" fill="#fa827d"/><text x="710" y="258" font-size="10">6</text><line x1="765" x2="765" y1="155.19" y2="185.01" stroke="#fa827d"/><rect x="756" y="174.60" width="18" height="9.26" fill="#fa827d"/><text x="757" y="258" font-size="10">7</text><line x1="812" x2="812" y1="181.49" y2="230.82" stroke="#fa827d"/><rect x="803" y="183.85" width="18" height="10.45" fill="#fa827d"/><text x="804" y="258" font-size="10">8</text><line x1="859" x2="859" y1="191.46" y2="235.00" stroke="#fa827d"/><rect x="850" y="194.33" width="18" height="12.65" fill="#fa827d"/><text x="851" y="258" font-size="10">9</text><line x1="906" x2="906" y1="182.79" y2="215.32" stroke="#66d9a4"/><rect x="897" y="193.88" width="18" height="13.07" fill="#66d9a4"/><text x="898" y="258" font-size="10">10</text><line x1="953" x2="953" y1="140.96" y2="214.16" stroke="#66d9a4"/><rect x="944" y="141.18" width="18" height="52.46" fill="#66d9a4"/><text x="945" y="258" font-size="10">11</text><line x1="1000" x2="1000" y1="106.65" y2="152.09" stroke="#fa827d"/><rect x="991" y="141.36" width="18" height="7.59" fill="#fa827d"/><text x="992" y="258" font-size="10">12</text><text x="30" y="278" font-size="11">signal=0; bars +1 onward are outcome diagnosis only, unavailable to signal. Historical parent 15m clock preserved.</text><text x="30" y="290">loser | BTC-USDT short | saved net -61.36 bps / MFE 1.01R</text><line x1="60" x2="60" y1="361.43" y2="392.82" stroke="#fa827d"/><rect x="51" y="361.75" width="18" height="23.49" fill="#fa827d"/><text x="52" y="518" font-size="10">-8</text><line x1="107" x2="107" y1="373.59" y2="399.24" stroke="#fa827d"/><rect x="98" y="385.23" width="18" height="8.01" fill="#fa827d"/><text x="99" y="518" font-size="10">-7</text><line x1="154" x2="154" y1="372.32" y2="404.46" stroke="#fa827d"/><rect x="145" y="393.23" width="18" height="9.97" fill="#fa827d"/><text x="146" y="518" font-size="10">-6</text><line x1="201" x2="201" y1="400.66" y2="453.82" stroke="#fa827d"/><rect x="192" y="403.20" width="18" height="11.27" fill="#fa827d"/><text x="193" y="518" font-size="10">-5</text><line x1="248" x2="248" y1="411.41" y2="458.33" stroke="#fa827d"/><rect x="239" y="414.49" width="18" height="13.63" fill="#fa827d"/><text x="240" y="518" font-size="10">-4</text><line x1="295" x2="295" y1="402.06" y2="437.11" stroke="#66d9a4"/><rect x="286" y="414.01" width="18" height="14.09" fill="#66d9a4"/><text x="287" y="518" font-size="10">-3</text><line x1="342" x2="342" y1="356.97" y2="435.87" stroke="#66d9a4"/><rect x="333" y="357.22" width="18" height="56.54" fill="#66d9a4"/><text x="334" y="518" font-size="10">-2</text><line x1="389" x2="389" y1="320.00" y2="368.97" stroke="#fa827d"/><rect x="380" y="357.41" width="18" height="8.18" fill="#fa827d"/><text x="381" y="518" font-size="10">-1</text><rect x="418" y="310" width="36" height="205" fill="#304353"/><line x1="436" x2="436" y1="354.68" y2="425.38" stroke="#fa827d"/><rect x="427" y="365.58" width="18" height="48.70" fill="#fa827d"/><text x="428" y="518" font-size="10">0</text><line x1="483" x2="483" y1="401.39" y2="452.82" stroke="#fa827d"/><rect x="474" y="414.27" width="18" height="11.20" fill="#fa827d"/><text x="475" y="518" font-size="10">1</text><line x1="530" x2="530" y1="421.49" y2="456.18" stroke="#fa827d"/><rect x="521" y="425.61" width="18" height="1.00" fill="#fa827d"/><text x="522" y="518" font-size="10">2</text><line x1="577" x2="577" y1="370.01" y2="427.99" stroke="#66d9a4"/><rect x="568" y="370.38" width="18" height="56.01" fill="#66d9a4"/><text x="569" y="518" font-size="10">3</text><line x1="624" x2="624" y1="351.38" y2="421.96" stroke="#fa827d"/><rect x="615" y="370.35" width="18" height="49.78" fill="#fa827d"/><text x="616" y="518" font-size="10">4</text><line x1="671" x2="671" y1="412.49" y2="443.15" stroke="#fa827d"/><rect x="662" y="420.14" width="18" height="19.52" fill="#fa827d"/><text x="663" y="518" font-size="10">5</text><line x1="718" x2="718" y1="419.04" y2="495.00" stroke="#fa827d"/><rect x="709" y="439.86" width="18" height="4.78" fill="#fa827d"/><text x="710" y="518" font-size="10">6</text><line x1="765" x2="765" y1="397.19" y2="444.89" stroke="#66d9a4"/><rect x="756" y="421.44" width="18" height="23.10" fill="#66d9a4"/><text x="757" y="518" font-size="10">7</text><line x1="812" x2="812" y1="418.82" y2="445.99" stroke="#fa827d"/><rect x="803" y="421.70" width="18" height="5.39" fill="#fa827d"/><text x="804" y="518" font-size="10">8</text><line x1="859" x2="859" y1="391.61" y2="429.27" stroke="#66d9a4"/><rect x="850" y="423.35" width="18" height="3.73" fill="#66d9a4"/><text x="851" y="518" font-size="10">9</text><line x1="906" x2="906" y1="386.47" y2="436.18" stroke="#66d9a4"/><rect x="897" y="410.54" width="18" height="12.90" fill="#66d9a4"/><text x="898" y="518" font-size="10">10</text><line x1="953" x2="953" y1="405.27" y2="431.06" stroke="#fa827d"/><rect x="944" y="410.58" width="18" height="17.22" fill="#fa827d"/><text x="945" y="518" font-size="10">11</text><line x1="1000" x2="1000" y1="410.78" y2="452.53" stroke="#66d9a4"/><rect x="991" y="412.15" width="18" height="15.65" fill="#66d9a4"/><text x="992" y="518" font-size="10">12</text><text x="30" y="538" font-size="11">signal=0; bars +1 onward are outcome diagnosis only, unavailable to signal. Historical parent 15m clock preserved.</text><text x="30" y="550">immediate_fail | BTC-USDT short | saved net -61.36 bps / MFE 1.01R</text><line x1="60" x2="60" y1="621.43" y2="652.82" stroke="#fa827d"/><rect x="51" y="621.75" width="18" height="23.49" fill="#fa827d"/><text x="52" y="778" font-size="10">-8</text><line x1="107" x2="107" y1="633.59" y2="659.24" stroke="#fa827d"/><rect x="98" y="645.23" width="18" height="8.01" fill="#fa827d"/><text x="99" y="778" font-size="10">-7</text><line x1="154" x2="154" y1="632.32" y2="664.46" stroke="#fa827d"/><rect x="145" y="653.23" width="18" height="9.97" fill="#fa827d"/><text x="146" y="778" font-size="10">-6</text><line x1="201" x2="201" y1="660.66" y2="713.82" stroke="#fa827d"/><rect x="192" y="663.20" width="18" height="11.27" fill="#fa827d"/><text x="193" y="778" font-size="10">-5</text><line x1="248" x2="248" y1="671.41" y2="718.33" stroke="#fa827d"/><rect x="239" y="674.49" width="18" height="13.63" fill="#fa827d"/><text x="240" y="778" font-size="10">-4</text><line x1="295" x2="295" y1="662.06" y2="697.11" stroke="#66d9a4"/><rect x="286" y="674.01" width="18" height="14.09" fill="#66d9a4"/><text x="287" y="778" font-size="10">-3</text><line x1="342" x2="342" y1="616.97" y2="695.87" stroke="#66d9a4"/><rect x="333" y="617.22" width="18" height="56.54" fill="#66d9a4"/><text x="334" y="778" font-size="10">-2</text><line x1="389" x2="389" y1="580.00" y2="628.97" stroke="#fa827d"/><rect x="380" y="617.41" width="18" height="8.18" fill="#fa827d"/><text x="381" y="778" font-size="10">-1</text><rect x="418" y="570" width="36" height="205" fill="#304353"/><line x1="436" x2="436" y1="614.68" y2="685.38" stroke="#fa827d"/><rect x="427" y="625.58" width="18" height="48.70" fill="#fa827d"/><text x="428" y="778" font-size="10">0</text><line x1="483" x2="483" y1="661.39" y2="712.82" stroke="#fa827d"/><rect x="474" y="674.27" width="18" height="11.20" fill="#fa827d"/><text x="475" y="778" font-size="10">1</text><line x1="530" x2="530" y1="681.49" y2="716.18" stroke="#fa827d"/><rect x="521" y="685.61" width="18" height="1.00" fill="#fa827d"/><text x="522" y="778" font-size="10">2</text><line x1="577" x2="577" y1="630.01" y2="687.99" stroke="#66d9a4"/><rect x="568" y="630.38" width="18" height="56.01" fill="#66d9a4"/><text x="569" y="778" font-size="10">3</text><line x1="624" x2="624" y1="611.38" y2="681.96" stroke="#fa827d"/><rect x="615" y="630.35" width="18" height="49.78" fill="#fa827d"/><text x="616" y="778" font-size="10">4</text><line x1="671" x2="671" y1="672.49" y2="703.15" stroke="#fa827d"/><rect x="662" y="680.14" width="18" height="19.52" fill="#fa827d"/><text x="663" y="778" font-size="10">5</text><line x1="718" x2="718" y1="679.04" y2="755.00" stroke="#fa827d"/><rect x="709" y="699.86" width="18" height="4.78" fill="#fa827d"/><text x="710" y="778" font-size="10">6</text><line x1="765" x2="765" y1="657.19" y2="704.89" stroke="#66d9a4"/><rect x="756" y="681.44" width="18" height="23.10" fill="#66d9a4"/><text x="757" y="778" font-size="10">7</text><line x1="812" x2="812" y1="678.82" y2="705.99" stroke="#fa827d"/><rect x="803" y="681.70" width="18" height="5.39" fill="#fa827d"/><text x="804" y="778" font-size="10">8</text><line x1="859" x2="859" y1="651.61" y2="689.27" stroke="#66d9a4"/><rect x="850" y="683.35" width="18" height="3.73" fill="#66d9a4"/><text x="851" y="778" font-size="10">9</text><line x1="906" x2="906" y1="646.47" y2="696.18" stroke="#66d9a4"/><rect x="897" y="670.54" width="18" height="12.90" fill="#66d9a4"/><text x="898" y="778" font-size="10">10</text><line x1="953" x2="953" y1="665.27" y2="691.06" stroke="#fa827d"/><rect x="944" y="670.58" width="18" height="17.22" fill="#fa827d"/><text x="945" y="778" font-size="10">11</text><line x1="1000" x2="1000" y1="670.78" y2="712.53" stroke="#66d9a4"/><rect x="991" y="672.15" width="18" height="15.65" fill="#66d9a4"/><text x="992" y="778" font-size="10">12</text><text x="30" y="798" font-size="11">signal=0; bars +1 onward are outcome diagnosis only, unavailable to signal. Historical parent 15m clock preserved.</text><text x="30" y="810">fat_winner | BTC-USDT short | saved net 74.33 bps / MFE 4.19R</text><line x1="60" x2="60" y1="885.17" y2="914.04" stroke="#fa827d"/><rect x="51" y="893.03" width="18" height="2.24" fill="#fa827d"/><text x="52" y="1038" font-size="10">-8</text><line x1="107" x2="107" y1="891.02" y2="909.57" stroke="#66d9a4"/><rect x="98" y="893.39" width="18" height="1.88" fill="#66d9a4"/><text x="99" y="1038" font-size="10">-7</text><line x1="154" x2="154" y1="852.83" y2="895.06" stroke="#66d9a4"/><rect x="145" y="884.37" width="18" height="9.04" fill="#66d9a4"/><text x="146" y="1038" font-size="10">-6</text><line x1="201" x2="201" y1="844.16" y2="885.07" stroke="#66d9a4"/><rect x="192" y="844.16" width="18" height="40.21" fill="#66d9a4"/><text x="193" y="1038" font-size="10">-5</text><line x1="248" x2="248" y1="840.00" y2="858.05" stroke="#fa827d"/><rect x="239" y="844.16" width="18" height="12.77" fill="#fa827d"/><text x="240" y="1038" font-size="10">-4</text><line x1="295" x2="295" y1="847.15" y2="860.57" stroke="#66d9a4"/><rect x="286" y="854.88" width="18" height="2.04" fill="#66d9a4"/><text x="287" y="1038" font-size="10">-3</text><line x1="342" x2="342" y1="847.74" y2="869.60" stroke="#fa827d"/><rect x="333" y="854.45" width="18" height="15.09" fill="#fa827d"/><text x="334" y="1038" font-size="10">-2</text><line x1="389" x2="389" y1="865.02" y2="885.59" stroke="#fa827d"/><rect x="380" y="869.54" width="18" height="5.84" fill="#fa827d"/><text x="381" y="1038" font-size="10">-1</text><rect x="418" y="830" width="36" height="205" fill="#304353"/><line x1="436" x2="436" y1="875.38" y2="893.84" stroke="#fa827d"/><rect x="427" y="875.38" width="18" height="12.90" fill="#fa827d"/><text x="428" y="1038" font-size="10">0</text><line x1="483" x2="483" y1="883.30" y2="898.75" stroke="#66d9a4"/><rect x="474" y="885.65" width="18" height="2.62" fill="#66d9a4"/><text x="475" y="1038" font-size="10">1</text><line x1="530" x2="530" y1="878.08" y2="891.30" stroke="#fa827d"/><rect x="521" y="885.61" width="18" height="5.32" fill="#fa827d"/><text x="522" y="1038" font-size="10">2</text><line x1="577" x2="577" y1="890.90" y2="907.20" stroke="#fa827d"/><rect x="568" y="890.93" width="18" height="14.97" fill="#fa827d"/><text x="569" y="1038" font-size="10">3</text><line x1="624" x2="624" y1="902.80" y2="925.76" stroke="#fa827d"/><rect x="615" y="905.88" width="18" height="19.48" fill="#fa827d"/><text x="616" y="1038" font-size="10">4</text><line x1="671" x2="671" y1="925.09" y2="954.22" stroke="#fa827d"/><rect x="662" y="925.39" width="18" height="21.80" fill="#fa827d"/><text x="663" y="1038" font-size="10">5</text><line x1="718" x2="718" y1="936.38" y2="960.17" stroke="#fa827d"/><rect x="709" y="947.17" width="18" height="7.43" fill="#fa827d"/><text x="710" y="1038" font-size="10">6</text><line x1="765" x2="765" y1="935.19" y2="965.01" stroke="#fa827d"/><rect x="756" y="954.60" width="18" height="9.26" fill="#fa827d"/><text x="757" y="1038" font-size="10">7</text><line x1="812" x2="812" y1="961.49" y2="1010.82" stroke="#fa827d"/><rect x="803" y="963.85" width="18" height="10.45" fill="#fa827d"/><text x="804" y="1038" font-size="10">8</text><line x1="859" x2="859" y1="971.46" y2="1015.00" stroke="#fa827d"/><rect x="850" y="974.33" width="18" height="12.65" fill="#fa827d"/><text x="851" y="1038" font-size="10">9</text><line x1="906" x2="906" y1="962.79" y2="995.32" stroke="#66d9a4"/><rect x="897" y="973.88" width="18" height="13.07" fill="#66d9a4"/><text x="898" y="1038" font-size="10">10</text><line x1="953" x2="953" y1="920.96" y2="994.16" stroke="#66d9a4"/><rect x="944" y="921.18" width="18" height="52.46" fill="#66d9a4"/><text x="945" y="1038" font-size="10">11</text><line x1="1000" x2="1000" y1="886.65" y2="932.09" stroke="#fa827d"/><rect x="991" y="921.36" width="18" height="7.59" fill="#fa827d"/><text x="992" y="1038" font-size="10">12</text><text x="30" y="1058" font-size="11">signal=0; bars +1 onward are outcome diagnosis only, unavailable to signal. Historical parent 15m clock preserved.</text><text x="30" y="1070">mfe_giveback | BTC-USDT short | saved net -61.36 bps / MFE 1.01R</text><line x1="60" x2="60" y1="1141.43" y2="1172.82" stroke="#fa827d"/><rect x="51" y="1141.75" width="18" height="23.49" fill="#fa827d"/><text x="52" y="1298" font-size="10">-8</text><line x1="107" x2="107" y1="1153.59" y2="1179.24" stroke="#fa827d"/><rect x="98" y="1165.23" width="18" height="8.01" fill="#fa827d"/><text x="99" y="1298" font-size="10">-7</text><line x1="154" x2="154" y1="1152.32" y2="1184.46" stroke="#fa827d"/><rect x="145" y="1173.23" width="18" height="9.97" fill="#fa827d"/><text x="146" y="1298" font-size="10">-6</text><line x1="201" x2="201" y1="1180.66" y2="1233.82" stroke="#fa827d"/><rect x="192" y="1183.20" width="18" height="11.27" fill="#fa827d"/><text x="193" y="1298" font-size="10">-5</text><line x1="248" x2="248" y1="1191.41" y2="1238.33" stroke="#fa827d"/><rect x="239" y="1194.49" width="18" height="13.63" fill="#fa827d"/><text x="240" y="1298" font-size="10">-4</text><line x1="295" x2="295" y1="1182.06" y2="1217.11" stroke="#66d9a4"/><rect x="286" y="1194.01" width="18" height="14.09" fill="#66d9a4"/><text x="287" y="1298" font-size="10">-3</text><line x1="342" x2="342" y1="1136.97" y2="1215.87" stroke="#66d9a4"/><rect x="333" y="1137.22" width="18" height="56.54" fill="#66d9a4"/><text x="334" y="1298" font-size="10">-2</text><line x1="389" x2="389" y1="1100.00" y2="1148.97" stroke="#fa827d"/><rect x="380" y="1137.41" width="18" height="8.18" fill="#fa827d"/><text x="381" y="1298" font-size="10">-1</text><rect x="418" y="1090" width="36" height="205" fill="#304353"/><line x1="436" x2="436" y1="1134.68" y2="1205.38" stroke="#fa827d"/><rect x="427" y="1145.58" width="18" height="48.70" fill="#fa827d"/><text x="428" y="1298" font-size="10">0</text><line x1="483" x2="483" y1="1181.39" y2="1232.82" stroke="#fa827d"/><rect x="474" y="1194.27" width="18" height="11.20" fill="#fa827d"/><text x="475" y="1298" font-size="10">1</text><line x1="530" x2="530" y1="1201.49" y2="1236.18" stroke="#fa827d"/><rect x="521" y="1205.61" width="18" height="1.00" fill="#fa827d"/><text x="522" y="1298" font-size="10">2</text><line x1="577" x2="577" y1="1150.01" y2="1207.99" stroke="#66d9a4"/><rect x="568" y="1150.38" width="18" height="56.01" fill="#66d9a4"/><text x="569" y="1298" font-size="10">3</text><line x1="624" x2="624" y1="1131.38" y2="1201.96" stroke="#fa827d"/><rect x="615" y="1150.35" width="18" height="49.78" fill="#fa827d"/><text x="616" y="1298" font-size="10">4</text><line x1="671" x2="671" y1="1192.49" y2="1223.15" stroke="#fa827d"/><rect x="662" y="1200.14" width="18" height="19.52" fill="#fa827d"/><text x="663" y="1298" font-size="10">5</text><line x1="718" x2="718" y1="1199.04" y2="1275.00" stroke="#fa827d"/><rect x="709" y="1219.86" width="18" height="4.78" fill="#fa827d"/><text x="710" y="1298" font-size="10">6</text><line x1="765" x2="765" y1="1177.19" y2="1224.89" stroke="#66d9a4"/><rect x="756" y="1201.44" width="18" height="23.10" fill="#66d9a4"/><text x="757" y="1298" font-size="10">7</text><line x1="812" x2="812" y1="1198.82" y2="1225.99" stroke="#fa827d"/><rect x="803" y="1201.70" width="18" height="5.39" fill="#fa827d"/><text x="804" y="1298" font-size="10">8</text><line x1="859" x2="859" y1="1171.61" y2="1209.27" stroke="#66d9a4"/><rect x="850" y="1203.35" width="18" height="3.73" fill="#66d9a4"/><text x="851" y="1298" font-size="10">9</text><line x1="906" x2="906" y1="1166.47" y2="1216.18" stroke="#66d9a4"/><rect x="897" y="1190.54" width="18" height="12.90" fill="#66d9a4"/><text x="898" y="1298" font-size="10">10</text><line x1="953" x2="953" y1="1185.27" y2="1211.06" stroke="#fa827d"/><rect x="944" y="1190.58" width="18" height="17.22" fill="#fa827d"/><text x="945" y="1298" font-size="10">11</text><line x1="1000" x2="1000" y1="1190.78" y2="1232.53" stroke="#66d9a4"/><rect x="991" y="1192.15" width="18" height="15.65" fill="#66d9a4"/><text x="992" y="1298" font-size="10">12</text><text x="30" y="1318" font-size="11">signal=0; bars +1 onward are outcome diagnosis only, unavailable to signal. Historical parent 15m clock preserved.</text></g></svg>
